<svg width="33" height="32" viewBox="0 0 33 32" fill="none" xmlns="http://www.w3.org/2000/svg">
<path fill-rule="evenodd" clip-rule="evenodd" d="M18.7998 7.5C18.7998 10.2925 20.435 12.7031 22.8001 13.8265L22.7998 25C22.7998 26.6569 21.4567 28 19.7998 28H6.7998C5.14295 28 3.7998 26.6569 3.7998 25V10C3.7998 8.34315 5.14295 7 6.7998 7L18.8174 7.00053C18.8057 7.16551 18.7998 7.33206 18.7998 7.5Z" fill="#DDE9FD"/>
<path d="M15.7998 2C16.9044 2 17.7998 2.89543 17.7998 4V7L18.8173 7.00061C18.8057 7.16556 18.7998 7.33209 18.7998 7.5C18.7998 7.66825 18.8057 7.83511 18.8174 8.00039L6.2998 8C5.52011 8 4.87936 8.59489 4.80667 9.35554L4.7998 9.5V25.5C4.7998 26.2797 5.39469 26.9204 6.15534 26.9931L6.2998 27H20.2998C21.0795 27 21.7203 26.4051 21.7929 25.6445L21.7998 25.5L21.7995 13.2451C22.115 13.4652 22.4495 13.66 22.8001 13.8265L22.7998 25.5C22.7998 26.3175 22.4074 27.0433 21.8008 27.4995L21.7998 28C21.7998 29.1046 20.9044 30 19.7998 30C18.6952 30 17.7998 29.1046 17.7998 28H9.7998C9.7998 29.1046 8.90437 30 7.7998 30C6.69524 30 5.7998 29.1046 5.7998 28L5.80038 27.9501C4.71108 27.7293 3.87884 26.8002 3.80512 25.6644L3.7998 25.5V9.5C3.7998 8.17452 4.83134 7.08996 6.13543 7.00532L6.2998 7H8.7998V4C8.7998 2.89543 9.69524 2 10.7998 2H15.7998ZM8.7998 28H6.7998C6.7998 28.5523 7.24752 29 7.7998 29C8.31264 29 8.73531 28.614 8.79308 28.1166L8.7998 28ZM20.7998 28H18.7998C18.7998 28.5523 19.2475 29 19.7998 29C20.3126 29 20.7353 28.614 20.7931 28.1166L20.7998 28ZM9.2998 11C9.57595 11 9.7998 11.2239 9.7998 11.5V24.5C9.7998 24.7761 9.57595 25 9.2998 25C9.02366 25 8.7998 24.7761 8.7998 24.5V11.5C8.7998 11.2239 9.02366 11 9.2998 11ZM13.2998 11C13.5759 11 13.7998 11.2239 13.7998 11.5V24.5C13.7998 24.7761 13.5759 25 13.2998 25C13.0237 25 12.7998 24.7761 12.7998 24.5V11.5C12.7998 11.2239 13.0237 11 13.2998 11ZM17.2998 11C17.5759 11 17.7998 11.2239 17.7998 11.5V24.5C17.7998 24.7761 17.5759 25 17.2998 25C17.0237 25 16.7998 24.7761 16.7998 24.5V11.5C16.7998 11.2239 17.0237 11 17.2998 11ZM15.7998 3H10.7998C10.287 3 9.8643 3.38604 9.80653 3.88338L9.7998 4V7H16.7998V4C16.7998 3.48716 16.4138 3.06449 15.9164 3.00673L15.7998 3Z" fill="black"/>
<path d="M28.8218 4L29.7998 4.88344L24.409 10.7799C24.1762 11.0395 23.7988 11.0711 23.5312 10.8662L23.4626 10.806L20.7998 8.13356L21.7302 7.19976L23.8978 9.37493L28.8218 4Z" fill="#71C865"/>
<path fill-rule="evenodd" clip-rule="evenodd" d="M28.7547 2.59229L31.2162 4.81569L25.1492 11.4518C24.5677 12.0958 23.6042 12.1817 22.923 11.6604L22.8962 11.6399L22.7772 11.5354L19.3877 8.13355L21.7297 5.783L23.8669 7.92772L28.7547 2.59229ZM23.8973 9.37492L21.7298 7.19975L20.7993 8.13355L23.4621 10.806L23.5307 10.8662C23.7983 11.071 24.1757 11.0395 24.4086 10.7799L29.7993 4.88343L28.8213 3.99999L23.8973 9.37492Z" fill="#2A2A2E"/>
</svg>
